<svg width="268" height="37" viewBox="0 0 268 37" fill="none" xmlns="http://www.w3.org/2000/svg">
<path fill-rule="evenodd" clip-rule="evenodd" d="M263.873 25.3262C263.145 23.699 261.446 22.5219 259.712 22.5219C259.295 22.5219 258.082 22.5219 256.972 23.2143C257.631 22.1065 259.573 20.0277 262.07 18.5405L263.873 19.9253V25.3262ZM266.44 13.7628C265.469 15.4938 263.214 17.1903 261.966 18.1597L260.371 16.9133V11.7548C260.995 13.1382 262.521 14.3167 264.185 14.3167C265.157 14.3167 265.677 14.1422 266.44 13.7628ZM268 18.125L265.191 16.0132C267.064 14.386 267.792 12.2034 267.792 10.7161C267.792 10.507 267.757 10.1276 267.723 9.77992H267.376C267.098 10.543 266.543 11.2008 265.399 11.2008C264.289 11.2008 263.492 10.5776 262.798 9.81454L256.244 13.3805V18.679L258.671 20.5831C256.209 22.7643 255.758 24.2876 255.758 25.3955C255.758 26.8496 256.417 27.8882 257.665 28.3729L257.839 28.0613C257.527 27.7843 257.249 27.6112 257.249 26.9534C257.249 26.4687 257.839 25.7763 258.949 25.7763C260.37 25.7763 261.237 26.7443 261.688 27.265C261.688 27.2289 268 23.4913 268 23.4913V18.125ZM247.4 19.481V12.3491L247.643 12.1745L250.834 17.196L247.4 19.481ZM254.683 21.8699L251.111 24.641L247.4 21.7314V20.0004L254.302 15.3957V15.1866L250.868 9.92417L243.343 13.9431V23.8087L248.371 27.4439L254.96 22.2507L254.683 21.8699ZM242.025 24.0857L240.985 24.7781L239.424 23.3586V13.4916L240.915 12.3837L240.673 12.0707L239.389 13.0415L236.06 9.95881L231.76 13.0069L228.465 9.95881L224.234 12.9708L221.633 9.95881L217.472 12.8684L217.68 13.2493L218.72 12.5554L220.142 14.1133V23.5317L218.998 24.6742L222.327 27.4771L225.552 24.5703L224.234 23.324V13.4916L225.483 12.6593L227.737 14.7365V23.5317L226.627 24.6742L229.991 27.4771L233.147 24.5703L231.829 23.324V13.4209L232.939 12.6939L235.332 14.7365V23.3918L234.361 24.3972L237.759 27.4771L242.233 24.4319L242.025 24.0857ZM217.749 24.2588L216.639 24.9858L215.217 23.5663V13.5248L216.605 12.4876L216.327 12.1414L215.252 12.9708L212.72 9.95881L208.559 12.8684L208.802 13.2493L209.842 12.5554L211.125 14.1494V23.5663L209.252 24.9858L209.461 25.2628L210.432 24.5703L213.622 27.4771L217.992 24.5703L217.749 24.2588ZM213.31 2.75762L213.102 2.72444L210.189 5.18254V5.38882L212.651 8.15995H212.894L215.807 5.73648L215.772 5.56337L213.31 2.75762ZM195.658 20.2081L193.89 21.0736C192.884 19.758 192.225 17.9923 192.225 15.5342C192.225 14.5288 192.329 13.2824 192.641 12.4169L195.693 11.0681L195.658 20.2081ZM208.316 4.10928C208.316 1.23573 205.611 0.403378 203.357 0.508684V0.9602C204.71 0.991936 205.75 1.44345 205.75 2.34216C205.75 2.96678 205.299 3.76162 203.947 3.76162C202.872 3.76162 200.791 3.13989 199.126 2.58451C197.288 1.96277 195.554 1.37421 194.098 1.37421C191.254 1.37421 189.104 3.4861 189.104 6.08123C189.104 8.19456 190.699 8.95479 191.358 9.23175L191.566 8.88698C191.15 8.60857 190.734 8.29843 190.734 7.46752C190.734 6.84434 191.288 5.83889 192.745 5.83889C194.063 5.83889 195.797 6.42889 198.086 7.08525C200.062 7.63918 202.247 8.15994 203.426 8.29843V12.7977L201.207 14.6341V14.8072L203.426 16.7445V22.9431C202.282 23.6009 200.964 23.774 199.82 23.774C197.704 23.774 195.693 23.2201 194.098 21.4544L200.062 18.5794V8.6432L192.745 11.899C193.508 9.9588 195.034 8.67926 196.594 7.74305L196.49 7.39684C192.156 8.5754 188.202 12.5554 188.202 17.4716C188.202 23.3586 192.988 27.7194 198.433 27.7194C204.328 27.7194 208.073 23.1162 208.004 18.2347L207.657 18.1986C206.79 20.0696 205.542 21.8338 203.912 22.77V16.7445L206.27 14.8764L206.235 14.6687L203.912 12.7977V8.29843C206.062 8.29843 208.316 6.84434 208.316 4.10928ZM168.124 23.4278L166.182 24.8819L166.425 25.1589L167.361 24.5011L170.621 27.4771L174.99 24.5703L174.748 24.2587L173.638 24.9858L172.216 23.5663V1.09725H171.904L166.633 4.59397V4.90412C167.153 5.21571 168.124 5.3542 168.124 7.12131V23.4278ZM184.146 24.2588L179.187 27.5131L172.459 17.3677L177.21 9.99487L177.522 9.95881C178.077 10.5127 179.048 11.1013 179.95 11.1013C180.955 11.1013 181.649 10.5488 182.065 9.95881C182.065 9.95881 182.343 9.99487 182.343 9.95881C182.169 12.903 180.192 14.5649 178.701 14.5649C177.175 14.5649 176.447 13.871 175.649 13.3863L175.199 14.0441L182.481 24.8127L183.938 23.9125L184.146 24.2588ZM166.633 10.3065C166.633 10.3411 166.356 10.3065 166.356 10.3065C165.974 10.6512 165.489 10.8936 165.072 10.8936C164.518 10.8936 163.789 10.5488 163.442 10.0987H163.165L160.703 12.7977L158.171 10.0987L153.871 13.0761L154.079 13.4209L155.223 12.6592L156.715 14.2518V23.4278L154.773 24.8819L155.015 25.1589L155.952 24.5011L159.454 27.4771L163.997 24.465L163.789 24.1549L162.506 24.9165L160.807 23.3918V13.1786C161.535 13.9748 162.402 14.6687 163.408 14.6687C165.35 14.6687 166.425 12.5222 166.633 10.3065ZM144.993 22.4585V12.0707L148.669 14.7019V25.0897L144.993 22.4585ZM152.726 13.2824L148.01 9.92417L140.935 13.9748V23.4625L139.479 24.641L139.687 24.9497L140.831 24.0164L145.513 27.4439L152.726 23.047V13.2824ZM132.82 23.601C132.82 24.7781 132.023 25.9191 130.497 25.9191C130.254 25.9191 129.56 25.8859 129.318 25.8513V17.3345C129.664 17.0215 130.289 16.5368 131.086 16.5368C131.815 16.5368 132.404 16.9537 132.82 17.3345V23.601ZM132.82 16.8152C132.473 16.469 131.849 16.0882 131.086 16.0882C130.323 16.0882 129.63 16.5368 129.318 16.8152V13.0069C129.63 13.2824 130.323 13.7671 131.086 13.7671C131.849 13.7671 132.473 13.3531 132.82 13.0069V16.8152ZM132.82 12.4876C132.439 12.903 131.815 13.317 131.086 13.317C130.289 13.317 129.699 12.8323 129.318 12.4876V6.01342L130.809 5.00941L132.82 6.84433V12.4876ZM138.785 3.51926L137.329 4.83631L134.069 1.99594L129.318 5.52873V2.20366H128.832L128.936 25.7821C128.451 25.7128 127.237 25.4344 126.127 25.2627L126.023 5.56335C126.023 4.10926 124.983 2.10124 122.382 2.10124C119.711 2.10124 117.977 4.14244 117.977 6.18509H118.394C118.532 5.31956 118.983 4.55934 119.85 4.55934C120.752 4.55934 121.515 5.11183 121.515 7.05206V12.7285C118.844 12.8323 117.319 14.3225 117.319 16.156C117.319 17.2985 117.839 19.0641 119.711 19.1348L119.781 18.7886C119.157 18.5116 119.018 18.1294 119.018 17.7831C119.018 16.9537 119.815 16.6075 120.925 16.6075H121.445V25.609C119.33 26.336 118.359 27.8939 118.359 29.6596C118.359 32.0831 120.301 33.918 123.145 33.918C125.156 33.918 126.89 33.5718 128.73 33.1563C130.219 32.8448 132.023 32.4986 132.89 32.4986C133.999 32.4986 134.485 33.0179 134.485 33.8141C134.485 34.8167 134.034 35.199 133.445 35.3721L133.514 35.7183C135.907 35.2682 137.294 33.8473 137.294 31.7023C137.294 29.4865 135.179 28.1709 132.82 28.1709C131.607 28.1709 129.214 28.5503 127.41 28.9686C125.399 29.4173 123.353 29.625 122.729 29.625C121.723 29.625 120.476 29.1403 120.476 27.7901C120.476 26.5783 121.48 25.609 123.977 25.609C125.33 25.609 126.855 25.8167 128.52 26.1975C130.289 26.5783 131.849 27.063 133.375 27.063C135.491 27.063 137.398 26.3014 137.398 23.2201V5.28782L139.097 3.8323L138.785 3.51926ZM111.77 11.5168L110.695 12.3145L107.92 9.95881L104.695 12.8684L106.013 14.1133V25.0897L102.476 22.8393V13.9071L103.622 13.1108L100.221 9.95881L97.0656 12.8684L98.3849 14.1133V24.5357L97.9326 24.8127L94.8461 22.6316V13.871C94.8461 11.8644 93.8751 11.2744 92.5919 10.4796C91.5169 9.82176 91.0313 9.26783 91.0313 8.26382C91.0313 7.43291 91.8637 6.94677 92.2798 6.70587C92.2451 6.6698 92.2451 6.35821 92.2451 6.35821C91.1354 6.32359 88.0489 7.53677 87.9795 10.3411C87.9449 11.7952 88.6385 12.4169 89.3667 13.1108C90.095 13.8017 90.7539 14.4595 90.7539 15.6713V24.0856L89.1933 25.2974L89.4361 25.609L90.858 24.5011L94.7074 27.5131L98.3488 25.055L102.372 27.5131L110.105 23.0124V13.2493L112.013 11.8644L111.77 11.5168ZM80.6289 19.481V12.3491L80.8717 12.1745L84.0622 17.196L80.6289 19.481ZM87.9113 21.8699L84.3393 24.641L80.6286 21.7314V20.0004L87.5298 15.3957V15.1866L84.0966 9.92417L76.5711 13.9431V23.4971L75.0798 24.641L75.3226 24.9497L76.6751 23.8765L81.5996 27.4439L88.1888 22.2507L87.9113 21.8699ZM77.4034 2.79367C77.4034 2.34215 77.2993 1.96276 77.126 1.44345H76.7792C76.3283 2.65519 75.7734 3.31154 74.3516 3.31154C73.1031 3.31154 72.1321 2.55132 71.6119 1.99594C71.6119 2.03056 67.4503 6.80827 67.4503 6.80827L67.7971 7.1213L68.9762 5.77108C69.8779 6.46206 70.5368 7.1213 72.5482 7.15448V19.2733L64.017 4.52328C63.3581 3.41541 62.2484 1.7536 60.2023 1.7536C57.9134 1.7536 55.798 3.72844 56.0754 7.05206H56.4916C56.5956 6.15191 57.0464 5.18252 58.0521 5.18252C58.8498 5.18252 59.578 5.94275 59.9595 6.63661V11.3797C57.3239 11.3797 55.5899 12.5914 55.5899 14.7365C55.5899 15.8444 56.1448 17.7139 57.9828 18.0601L58.0175 17.7485C57.7747 17.5062 57.5319 17.2307 57.5319 16.7445C57.5319 15.9497 58.1215 15.4289 59.1966 15.4289C59.37 15.4289 59.8555 15.4635 59.9595 15.4996V21.6622C56.873 21.6953 54.4801 23.3918 54.4801 26.3014C54.4801 29.0711 56.873 30.3867 59.37 30.2467L59.4046 29.902C57.8441 29.7289 57.0117 29.0018 57.0117 27.9978C57.0117 26.75 57.9134 26.0937 59.0578 26.0937C60.237 26.0937 61.2773 26.8207 62.0056 27.6516L66.2019 22.9778L65.8551 22.6647L64.78 23.8765C63.1847 22.4584 62.2831 21.9377 60.445 21.6622V7.08524L72.2014 27.5477H73.0338V7.15448C75.2879 7.016 77.4034 5.31957 77.4034 2.79367ZM42.2398 19.481V12.3491L42.4825 12.1745L45.6731 17.196L42.2398 19.481ZM49.5227 21.8699L45.9507 24.641L42.24 21.7314V20.0004L49.1412 15.3957V15.1866L45.7079 9.92417L38.1825 13.9431V23.4971L36.6912 24.641L36.934 24.9497L38.2865 23.8765L43.211 27.4439L49.8001 22.2507L49.5227 21.8699ZM22.8886 23.4278L20.9465 24.8819L21.1893 25.1589L22.1256 24.5011L25.3855 27.4771L29.7551 24.5703L29.5471 24.2587L28.4026 24.9858L26.9808 23.5663V13.5955L28.1599 12.7285L30.6568 14.7365V23.5663C30.6568 29.0711 29.443 29.9712 26.9461 30.8714V31.2522C31.073 31.4253 34.7837 30.0405 34.7837 22.9778V13.4916L36.1015 12.4515L35.8587 12.1414L34.7143 13.0415L31.1423 9.9588L26.9808 13.0761V1.09725H26.6686L21.5014 4.55935V4.8695C22.0216 5.18253 22.8886 5.38882 22.8886 7.12131V23.4278ZM7.45628 20.2081L5.68762 21.0736C4.68191 19.758 4.023 17.9923 4.023 15.5342C4.023 14.5288 4.12704 13.2824 4.43916 12.4169L7.49096 11.0681L7.45628 20.2081ZM20.1142 4.10928C20.1142 1.23573 17.4092 0.403378 15.155 0.508684V0.9602C16.5075 0.991936 17.5479 1.44345 17.5479 2.34216C17.5479 2.96678 17.0971 3.76162 15.7446 3.76162C14.6695 3.76162 12.5887 3.13989 10.9241 2.58451C9.08607 1.96277 7.35209 1.37421 5.89554 1.37421C3.05181 1.37421 0.901671 3.4861 0.901671 6.08123C0.901671 8.19456 2.49693 8.95479 3.15585 9.23175L3.36393 8.88698C2.94777 8.60857 2.53161 8.29843 2.53161 7.46752C2.53161 6.84434 3.08649 5.83889 4.54303 5.83889C5.86086 5.83889 7.59484 6.42889 9.8837 7.08525C11.8604 7.63918 14.0453 8.15994 15.2244 8.29843V12.7977L13.0049 14.6341V14.8072L15.2244 16.7445V22.9431C14.0799 23.6009 12.7621 23.774 11.6177 23.774C9.50222 23.774 7.4908 23.2201 5.89554 21.4544L11.8604 18.5794V8.6432L4.54303 11.899C5.30599 9.9588 6.83189 8.67926 8.39248 7.74305L8.28844 7.39684C3.95348 8.5754 0 12.5554 0 17.4716C0 23.3586 4.78579 27.7194 10.2305 27.7194C16.126 27.7194 19.8714 23.1162 19.8021 18.2347L19.4553 18.1986C18.5883 20.0696 17.3398 21.8338 15.7099 22.77V16.7445L18.0681 14.8764L18.0334 14.6687L15.7099 12.7977V8.29843C17.86 8.29843 20.1142 6.84434 20.1142 4.10928Z" fill="white"/>
</svg>
